<?xml version="1.0" encoding="utf-8"?>
<!-- Generator: Adobe Illustrator 27.9.0, SVG Export Plug-In . SVG Version: 6.00 Build 0)  -->
<svg version="1.1" id="Layer_1" xmlns="http://www.w3.org/2000/svg" xmlns:xlink="http://www.w3.org/1999/xlink" x="0px" y="0px"
	 viewBox="0 0 218.9 190.8" style="enable-background:new 0 0 218.9 190.8;" xml:space="preserve">
<image style="overflow:visible;enable-background:new    ;" width="142" height="178" xlink:href="2C432971090406C3.png"  transform="matrix(0.3273 -0.1315 9.870000e-02 0.2456 163.2661 12.302)">
</image>
<image style="overflow:visible;enable-background:new    ;" width="200" height="168" xlink:href="2C432971090406C1.png"  transform="matrix(0.1167 0 0 0.113 88.7363 103.7853)">
</image>
<image style="overflow:visible;enable-background:new    ;" width="153" height="208" xlink:href="2C432971090406C7.png"  transform="matrix(0.1593 -4.260000e-02 4.230000e-02 0.1581 143.8929 11.6404)">
</image>
<image style="overflow:visible;enable-background:new    ;" width="153" height="208" xlink:href="2C432971090406C0.png"  transform="matrix(0.1184 -2.776315e-02 3.785237e-02 0.1545 151.0826 55.0248)">
</image>
<image style="overflow:visible;enable-background:new    ;" width="170" height="230" xlink:href="2C432971090406CE.png"  transform="matrix(0.1385 -6.070000e-02 5.600000e-02 0.1276 82.1954 15.3094)">
</image>
<image style="overflow:visible;enable-background:new    ;" width="145" height="250" xlink:href="2C432971090406CF.png"  transform="matrix(0.1353 -2.800000e-02 2.850000e-02 0.1379 118.6204 9.6164)">
</image>
<image style="overflow:visible;enable-background:new    ;" width="154" height="272" xlink:href="2C432971090406C2.png"  transform="matrix(0.1234 0 0 0.1343 58.917 6.5576)">
</image>
<image style="overflow:visible;enable-background:new    ;" width="127" height="230" xlink:href="2C432971090406C5.png"  transform="matrix(0.1789 -2.747909e-02 2.120000e-02 0.1482 55.9206 54.532)">
</image>
<image style="overflow:visible;enable-background:new    ;" width="134" height="201" xlink:href="2C432971090406C6.png"  transform="matrix(0.1402 0 0 0.1397 29.1146 57.3653)">
</image>
<image style="overflow:visible;enable-background:new    ;" width="103" height="148" xlink:href="65B4FD564D94FA30.png"  transform="matrix(0.2151 0 0 0.2552 185.6577 95.3867)">
</image>
<image style="overflow:visible;enable-background:new    ;" width="151" height="224" xlink:href="65B4FD564D94FA37.png"  transform="matrix(0.1595 -6.100000e-02 5.210000e-02 0.1363 145.3886 102.6179)">
</image>
<image style="overflow:visible;enable-background:new    ;" width="165" height="230" xlink:href="65B4FD564D94FA31.png"  transform="matrix(0.1376 -3.397063e-03 3.397063e-03 0.1376 55.9206 98.7242)">
</image>
<image style="overflow:visible;enable-background:new    ;" width="113" height="124" xlink:href="65B4FD564D94FA33.png"  transform="matrix(0.238 0 0 0.2648 180.9166 142.8219)">
</image>
<image style="overflow:visible;enable-background:new    ;" width="120" height="233" xlink:href="65B4FD564D94FA2E.png"  transform="matrix(0.1683 -3.464482e-02 3.065293e-02 0.1445 149.5993 145.5296)">
</image>
<image style="overflow:visible;enable-background:new    ;" width="156" height="230" xlink:href="65B4FD564D94FA2F.png"  transform="matrix(0.1285 -8.996772e-03 1.060000e-02 0.1507 120.7502 97.6392)">
</image>
<image style="overflow:visible;enable-background:new    ;" width="178" height="257" xlink:href="65B4FD564D94FA50.png"  transform="matrix(0.1243 0 0 9.051836e-02 123.2427 148.9541)">
</image>
<image style="overflow:visible;enable-background:new    ;" width="195" height="165" xlink:href="65B4FD564D94FA53.png"  transform="matrix(0.1307 -3.140000e-02 4.190000e-02 0.1746 82.1954 147.8949)">
</image>
<image style="overflow:visible;enable-background:new    ;" width="186" height="178" xlink:href="65B4FD564D94FA51.png"  transform="matrix(0.139 -1.450000e-02 1.610000e-02 0.1545 117.6322 54.8619)">
</image>
<image style="overflow:visible;enable-background:new    ;" width="186" height="214" xlink:href="65B4FD564D94FA57.png"  transform="matrix(0.1402 -3.250000e-02 3.669580e-02 0.1583 21.5402 102.7317)">
</image>
<image style="overflow:visible;enable-background:new    ;" width="118" height="264" xlink:href="65B4FD564D94FA4B.png"  transform="matrix(0.1372 -1.120000e-02 1.080000e-02 0.132 28.9848 8.0607)">
</image>
<image style="overflow:visible;enable-background:new    ;" width="191" height="165" xlink:href="65B4FD564D94FA75.png"  transform="matrix(0.1024 -2.896181e-02 4.254454e-02 0.1563 87.116 55.4994)">
</image>
<image style="overflow:visible;enable-background:new    ;" width="284" height="238" xlink:href="65B4FD564D94FA77.png"  transform="matrix(8.883095e-02 0 0 0.1102 184.1203 54.1497)">
</image>
</svg>
